<?xml version="1.0" encoding="UTF-8" standalone="no"?>
<!-- Created with Inkscape (http://www.inkscape.org/) -->

<svg
   xmlns:dc="http://purl.org/dc/elements/1.1/"
   xmlns:cc="http://creativecommons.org/ns#"
   xmlns:rdf="http://www.w3.org/1999/02/22-rdf-syntax-ns#"
   xmlns:svg="http://www.w3.org/2000/svg"
   xmlns="http://www.w3.org/2000/svg"
   xmlns:sodipodi="http://sodipodi.sourceforge.net/DTD/sodipodi-0.dtd"
   xmlns:inkscape="http://www.inkscape.org/namespaces/inkscape"
   width="744.09448819"
   height="1052.3622047"
   id="svg5451"
   version="1.1"
   inkscape:version="0.48.2 r9819"
   sodipodi:docname="face.svg">
  <defs
     id="defs5453" />
  <sodipodi:namedview
     id="base"
     pagecolor="#ffffff"
     bordercolor="#666666"
     borderopacity="1.0"
     inkscape:pageopacity="0.0"
     inkscape:pageshadow="2"
     inkscape:zoom="0.58"
     inkscape:cx="285.60276"
     inkscape:cy="520"
     inkscape:document-units="px"
     inkscape:current-layer="layer3"
     showgrid="false"
     showguides="true"
     inkscape:guide-bbox="true"
     inkscape:window-width="1280"
     inkscape:window-height="752"
     inkscape:window-x="0"
     inkscape:window-y="0"
     inkscape:window-maximized="0">
    <sodipodi:guide
       orientation="1,0"
       position="374.13793,627.58621"
       id="guide6060" />
    <sodipodi:guide
       orientation="0,1"
       position="496.55172,551.72414"
       id="guide6062" />
    <sodipodi:guide
       orientation="1,0"
       position="115.51724,596.55172"
       id="guide6117" />
    <sodipodi:guide
       orientation="1,0"
       position="634.48276,474.13793"
       id="guide6119" />
    <sodipodi:guide
       orientation="0,1"
       position="-174.13793,856.89655"
       id="guide6121" />
    <sodipodi:guide
       orientation="0,1"
       position="-65.517241,337.93103"
       id="guide6123" />
  </sodipodi:namedview>
  <metadata
     id="metadata5456">
    <rdf:RDF>
      <cc:Work
         rdf:about="">
        <dc:format>image/svg+xml</dc:format>
        <dc:type
           rdf:resource="http://purl.org/dc/dcmitype/StillImage" />
        <dc:title></dc:title>
      </cc:Work>
    </rdf:RDF>
  </metadata>
  <g
     inkscape:label="Layer 1"
     inkscape:groupmode="layer"
     id="layer1"
     style="display:none">
    <path
       sodipodi:type="arc"
       style="fill:#f89dce;fill-opacity:1;fill-rule:nonzero;stroke:none"
       id="path5459"
       sodipodi:cx="428.44827"
       sodipodi:cy="644.60358"
       sodipodi:rx="259.48276"
       sodipodi:ry="259.48276"
       d="m 687.93103,644.60358 a 259.48276,259.48276 0 1 1 -518.96551,0 259.48276,259.48276 0 1 1 518.96551,0 z"
       transform="translate(-54.068966,-189.17241)"
       inkscape:export-filename="/Users/ovilia/Pictures/PS/face.png"
       inkscape:export-xdpi="17.342196"
       inkscape:export-ydpi="17.342196" />
  </g>
  <g
     inkscape:groupmode="layer"
     id="layer3"
     inkscape:label="face">
    <g
       transform="matrix(1.0643705,0,0,1.0643705,190.52374,-21.215606)"
       id="g6064">
      <g
         id="g6109">
        <g
           transform="translate(-220.04434,0)"
           id="g6042">
          <path
             sodipodi:type="arc"
             style="fill:#000000;fill-opacity:1;fill-rule:nonzero;stroke:none"
             id="path6024"
             sodipodi:cx="282.75861"
             sodipodi:cy="410.98288"
             sodipodi:rx="79.310349"
             sodipodi:ry="79.310349"
             d="m 362.06895,410.98288 c 0,43.8019 -35.50845,79.31035 -79.31034,79.31035 -43.8019,0 -79.31035,-35.50845 -79.31035,-79.31035 0,-43.8019 35.50845,-79.31035 79.31035,-79.31035 43.80189,0 79.31034,35.50845 79.31034,79.31035 z" />
          <path
             sodipodi:type="arc"
             style="fill:#ffffff;fill-opacity:1;fill-rule:nonzero;stroke:none"
             id="path6026"
             sodipodi:cx="15.517241"
             sodipodi:cy="412.707"
             sodipodi:rx="32.758621"
             sodipodi:ry="32.758621"
             d="m 48.275862,412.707 c 0,18.09209 -14.666535,32.75862 -32.758621,32.75862 -18.0920874,0 -32.758622,-14.66653 -32.758622,-32.75862 0,-18.09209 14.6665346,-32.75862 32.758622,-32.75862 18.092086,0 32.758621,14.66653 32.758621,32.75862 z"
             transform="translate(241.3793,-10.344827)" />
          <path
             sodipodi:type="arc"
             style="fill:#ffffff;fill-opacity:1;fill-rule:nonzero;stroke:none"
             id="path6030"
             sodipodi:cx="315.51724"
             sodipodi:cy="421.3277"
             sodipodi:rx="22.413794"
             sodipodi:ry="22.413794"
             d="m 337.93104,421.3277 c 0,12.37879 -10.035,22.41379 -22.4138,22.41379 -12.37879,0 -22.41379,-10.035 -22.41379,-22.41379 0,-12.3788 10.035,-22.4138 22.41379,-22.4138 12.3788,0 22.4138,10.035 22.4138,22.4138 z"
             transform="translate(3.1034477e-8,20.689655)" />
          <path
             sodipodi:type="arc"
             style="fill:#ffffff;fill-opacity:1;fill-rule:nonzero;stroke:none"
             id="path6040"
             sodipodi:cx="268.10345"
             sodipodi:cy="460.12079"
             sodipodi:rx="14.655172"
             sodipodi:ry="14.655172"
             d="m 282.75863,460.12079 c 0,8.09383 -6.56135,14.65517 -14.65518,14.65517 -8.09382,0 -14.65517,-6.56134 -14.65517,-14.65517 0,-8.09383 6.56135,-14.65517 14.65517,-14.65517 8.09383,0 14.65518,6.56134 14.65518,14.65517 z"
             transform="translate(6,0)" />
        </g>
        <path
           d="m 362.06895,410.98288 c 0,43.8019 -35.50845,79.31035 -79.31034,79.31035 -43.8019,0 -79.31035,-35.50845 -79.31035,-79.31035 0,-43.8019 35.50845,-79.31035 79.31035,-79.31035 43.80189,0 79.31034,35.50845 79.31034,79.31035 z"
           sodipodi:ry="79.310349"
           sodipodi:rx="79.310349"
           sodipodi:cy="410.98288"
           sodipodi:cx="282.75861"
           id="path6066"
           style="fill:#000000;fill-opacity:1;fill-rule:nonzero;stroke:none"
           sodipodi:type="arc" />
      </g>
      <path
         sodipodi:type="arc"
         style="fill:#ffffff;fill-opacity:1;fill-rule:nonzero;stroke:none"
         id="path6068"
         sodipodi:cx="15.517241"
         sodipodi:cy="412.707"
         sodipodi:rx="32.758621"
         sodipodi:ry="32.758621"
         d="m 48.275862,412.707 c 0,18.09209 -14.666535,32.75862 -32.758621,32.75862 -18.0920874,0 -32.758622,-14.66653 -32.758622,-32.75862 0,-18.09209 14.6665346,-32.75862 32.758622,-32.75862 18.092086,0 32.758621,14.66653 32.758621,32.75862 z"
         transform="translate(241.3793,-10.344827)" />
      <path
         sodipodi:type="arc"
         style="fill:#ffffff;fill-opacity:1;fill-rule:nonzero;stroke:none"
         id="path6070"
         sodipodi:cx="315.51724"
         sodipodi:cy="421.3277"
         sodipodi:rx="22.413794"
         sodipodi:ry="22.413794"
         d="m 337.93104,421.3277 c 0,12.37879 -10.035,22.41379 -22.4138,22.41379 -12.37879,0 -22.41379,-10.035 -22.41379,-22.41379 0,-12.3788 10.035,-22.4138 22.41379,-22.4138 12.3788,0 22.4138,10.035 22.4138,22.4138 z"
         transform="translate(3.1034477e-8,20.689655)" />
      <path
         sodipodi:type="arc"
         style="fill:#ffffff;fill-opacity:1;fill-rule:nonzero;stroke:none"
         id="path6072"
         sodipodi:cx="268.10345"
         sodipodi:cy="460.12079"
         sodipodi:rx="14.655172"
         sodipodi:ry="14.655172"
         d="m 282.75863,460.12079 c 0,8.09383 -6.56135,14.65517 -14.65518,14.65517 -8.09382,0 -14.65517,-6.56134 -14.65517,-14.65517 0,-8.09383 6.56135,-14.65517 14.65517,-14.65517 8.09383,0 14.65518,6.56134 14.65518,14.65517 z"
         transform="translate(6,0)" />
    </g>
    <path
       style="fill:#c83737;fill-opacity:1;stroke:#000000;stroke-opacity:1;stroke-width:8.2;stroke-miterlimit:4;stroke-dasharray:none"
       d="m 327.24844,560.33708 94.26173,0 c 0,0 -42.5102,227.33708 -94.26173,0 z"
       id="path6102"
       inkscape:connector-curvature="0"
       sodipodi:nodetypes="ccc" />
  </g>
</svg>
