<?xml version="1.0" encoding="UTF-8" standalone="no"?>
<!-- Created with Inkscape (http://www.inkscape.org/) -->

<svg
   xmlns:osb="http://www.openswatchbook.org/uri/2009/osb"
   xmlns:dc="http://purl.org/dc/elements/1.1/"
   xmlns:cc="http://creativecommons.org/ns#"
   xmlns:rdf="http://www.w3.org/1999/02/22-rdf-syntax-ns#"
   xmlns:svg="http://www.w3.org/2000/svg"
   xmlns="http://www.w3.org/2000/svg"
   xmlns:xlink="http://www.w3.org/1999/xlink"
   xmlns:sodipodi="http://sodipodi.sourceforge.net/DTD/sodipodi-0.dtd"
   xmlns:inkscape="http://www.inkscape.org/namespaces/inkscape"
   width="32px"
   height="32px"
   id="svg4022"
   version="1.1"
   inkscape:version="0.48.2 r9819"
   inkscape:export-filename="/Users/ovilia/Pictures/PS/fish_bone.png"
   inkscape:export-xdpi="90"
   inkscape:export-ydpi="90"
   sodipodi:docname="fish_bone.svg">
  <defs
     id="defs4024">
    <filter
       id="filter5421"
       inkscape:collect="always">
      <feGaussianBlur
         id="feGaussianBlur5423"
         stdDeviation="7.7774611"
         inkscape:collect="always" />
    </filter>
    <linearGradient
       osb:paint="gradient"
       id="linearGradient5329">
      <stop
         id="stop5331"
         offset="0"
         style="stop-color:#ffff00;stop-opacity:1;" />
      <stop
         id="stop5333"
         offset="1"
         style="stop-color:#ffff00;stop-opacity:0;" />
    </linearGradient>
    <linearGradient
       id="linearGradient5461"
       inkscape:collect="always">
      <stop
         id="stop5463"
         offset="0"
         style="stop-color:#ccff00;stop-opacity:1;" />
      <stop
         id="stop5465"
         offset="1"
         style="stop-color:#ccff00;stop-opacity:0;" />
    </linearGradient>
    <linearGradient
       inkscape:collect="always"
       xlink:href="#linearGradient5461"
       id="linearGradient4285"
       gradientUnits="userSpaceOnUse"
       x1="115.62176"
       y1="227.55768"
       x2="565.58508"
       y2="227.55768" />
  </defs>
  <sodipodi:namedview
     id="base"
     pagecolor="#ffffff"
     bordercolor="#666666"
     borderopacity="1.0"
     inkscape:pageopacity="0.0"
     inkscape:pageshadow="2"
     inkscape:zoom="11.197802"
     inkscape:cx="6.8651181"
     inkscape:cy="11.763332"
     inkscape:current-layer="layer1"
     showgrid="true"
     inkscape:grid-bbox="true"
     inkscape:document-units="px"
     inkscape:window-width="1280"
     inkscape:window-height="752"
     inkscape:window-x="0"
     inkscape:window-y="0"
     inkscape:window-maximized="0" />
  <metadata
     id="metadata4027">
    <rdf:RDF>
      <cc:Work
         rdf:about="">
        <dc:format>image/svg+xml</dc:format>
        <dc:type
           rdf:resource="http://purl.org/dc/dcmitype/StillImage" />
        <dc:title></dc:title>
      </cc:Work>
    </rdf:RDF>
  </metadata>
  <g
     id="layer1"
     inkscape:label="Layer 1"
     inkscape:groupmode="layer">
    <g
       id="g4237"
       transform="matrix(0.06953636,0,0,0.06953636,15.887484,14.235031)">
      <g
         transform="translate(-343.09442,-203.83988)"
         id="g4190">
        <g
           id="layer4"
           inkscape:label="head" />
        <g
           id="layer2"
           inkscape:label="filling"
           style="display:none" />
        <g
           id="layer1-6"
           inkscape:label="Layer 1"
           style="display:none">
          <path
             style="fill:#000000;fill-opacity:1;fill-rule:nonzero;stroke:none"
             id="path3059"
             d="m 295.44111,50.693949 c 18.27131,10.390394 27.11889,15.834143 48.67805,25.318421 62.39648,27.44938 19.156,4.316722 79.96076,33.35641 19.2345,9.18619 46.60425,24.57642 65.68301,35.0854 14.58766,8.99435 24.88256,14.21544 37.25799,25.81623 4.7303,4.43421 8.78725,9.54262 12.94878,14.5145 3.11111,3.71692 6.19,7.48558 8.85461,11.53457 2.72384,4.13898 6.07451,11.38008 8.44059,16.32692 2.56319,3.25594 1.00981,2.01635 4.65355,3.80191 1.01927,0.49948 1.95638,1.22634 3.05892,1.49616 0.51975,0.1272 -0.81201,-0.69709 -1.21802,-1.04564 10.44545,1.8573 7.12062,20.55614 -3.32483,18.69884 l 0,0 c -1.58753,-0.55863 -3.25288,-0.93223 -4.76261,-1.6759 -1.52663,-0.752 -2.91698,-1.76382 -4.28239,-2.77955 -8.77758,-6.52965 -6.23805,-3.93229 -11.18877,-12.1009 -0.37502,-1.53358 -0.58084,-3.11874 -1.12505,-4.60074 -2.96318,-8.06935 -5.46397,-12.20779 -10.92483,-19.43117 -3.4031,-4.50146 -6.87656,-8.98823 -10.84997,-12.99525 -9.64157,-9.72312 -22.8671,-18.83233 -33.65425,-26.86373 -22.19842,-13.17311 -40.49969,-24.56614 -63.87905,-36.06886 -12.63403,-6.21598 -25.4635,-12.06918 -38.53775,-17.29615 -13.75397,-5.498714 -27.97439,-9.753943 -41.88092,-14.854533 -24.33568,-8.925758 -31.61402,-12.005669 -52.64819,-20.504274 -8.78849,-4.882495 -0.0481,-20.61516 8.74037,-15.732664 z"
             inkscape:connector-curvature="0" />
          <path
             style="fill:#000000;fill-opacity:1;fill-rule:nonzero;stroke:none"
             id="path3061"
             d="m 564.84525,237.3074 c -2.94311,3.99007 -12.771,17.33047 -14.73165,19.8973 -3.87286,5.07026 -7.48408,10.3692 -11.78191,15.08463 -8.61855,9.45599 -22.52725,21.71884 -33.51199,28.35454 -8.85604,5.34978 -18.40244,9.46303 -27.60366,14.19454 -16.09211,6.68087 -66.53832,27.6025 -80.54759,33.51838 -15.88671,6.70869 -31.67867,13.64068 -47.576,20.32416 -15.4213,6.48334 -31.1064,12.34783 -46.37831,19.17564 -22.6667,10.1339 -18.27497,5.8624 -26.49778,15.39482 -10.36776,2.08371 -14.09791,-16.47606 -3.73015,-18.55978 l 0,0 c 5.49913,10.02779 1.25993,4.16144 26.78724,-5.23749 31.15142,-11.46969 63.34889,-26.24883 93.53151,-39.92352 14.38037,-6.51524 28.7291,-13.10076 43.0468,-19.75261 11.70166,-5.43646 23.34015,-11.00787 35.01022,-16.51181 16.56809,-9.7349 27.09847,-14.72721 41.16123,-26.67374 4.92986,-4.188 9.68197,-8.63854 13.89333,-13.54846 4.05598,-4.72875 7.27352,-10.11758 10.80674,-15.24871 8.15967,-11.84988 7.05505,-10.44353 13.66552,-22.05305 6.46046,-8.07557 20.91691,3.48958 14.45645,11.56516 z"
             inkscape:connector-curvature="0" />
          <path
             style="fill:#000000;fill-opacity:1;fill-rule:nonzero;stroke:none"
             id="path3063"
             d="m 282.5521,69.790229 c -5.85888,11.90219 -4.4111,8.613315 -9.88855,21.223308 -2.03837,4.692668 -4.21375,9.331103 -6.04163,14.109693 -4.56017,11.92163 -4.75678,15.65886 -8.79465,28.08148 -1.94956,5.99784 -4.16886,11.90462 -6.25328,17.85693 -6.67368,20.07224 -13.60005,40.96029 -12.09365,62.46023 0.17909,2.55605 1.13732,4.99778 1.78779,7.47616 1.53142,5.83498 1.22205,4.76279 3.09256,9.13789 0.25978,0.82235 0.51956,1.6447 0.77934,2.46706 2.00637,10.44697 -16.69522,14.03867 -18.7016,3.59169 l 0,0 c 0.0648,-0.19279 0.12964,-0.38558 0.19446,-0.57838 -1.74149,-7.79231 -3.68656,-15.14576 -3.2072,-23.27912 0.32905,-5.58294 1.17963,-11.1309 2.13095,-16.64203 3.42894,-19.86419 6.33485,-29.86588 11.26831,-49.57239 1.8417,-5.77228 3.6834,-11.54455 5.52509,-17.31683 1.44514,-5.26917 2.70554,-10.59253 4.3354,-15.80753 1.22621,-3.92346 9.17374,-25.461307 10.51626,-28.806258 1.46276,-3.644529 3.32056,-7.123844 4.74594,-10.783158 1.51979,-3.901699 2.72122,-7.920039 4.08183,-11.880059 4.61489,-9.229777 21.13751,-0.968463 16.52263,8.261314 z"
             inkscape:connector-curvature="0" />
          <path
             style="fill:#000000;fill-opacity:1;fill-rule:nonzero;stroke:none"
             id="path3065"
             d="m 220.99789,234.41629 c -21.08673,-16.07547 -40.974,-33.69012 -63.63245,-47.62447 -5.58953,-3.43742 -11.31328,-6.75876 -17.40575,-9.19607 -1.9904,-0.79627 -7.5015,1.51593 -6.42249,-0.3365 2.5677,-4.40822 8.05792,-6.25875 12.08689,-9.38812 -3.65911,-7.41113 -0.57434,-4.76718 -11.39354,-4.3294 8.30932,-6.7266 20.35088,8.14828 12.04156,14.87487 l 0,0 c -14.43394,2.33039 -8.06284,4.1674 -19.05754,-5.70086 3.76005,-4.15124 6.09163,-10.34422 11.28015,-12.45371 3.0831,-1.2535 6.17631,2.53155 9.06687,4.18123 6.07035,3.46441 12.0119,7.16906 17.76801,11.13372 7.5192,5.17902 14.55693,11.03108 22.02923,16.27754 21.05648,14.78421 25.13634,16.97362 44.70711,29.03415 7.55673,6.18277 -3.51133,19.71039 -11.06805,13.52762 z"
             inkscape:connector-curvature="0" />
          <path
             style="fill:#000000;fill-opacity:1;fill-rule:nonzero;stroke:none"
             id="path3069"
             d="m 135.7798,194.73759 c 0.51245,8.56827 0.16609,3.95114 1.255,14.98779 0.42821,4.34013 0.3967,8.75139 1.29238,13.01962 1.54291,7.3525 3.76718,14.55138 5.99869,21.72495 5.91833,19.02552 7.24613,21.34007 14.0753,37.76193 1.04899,2.09358 4.6393,4.47618 3.14698,6.28074 -3.88417,4.69685 -9.97831,7.50507 -15.86217,9.09484 -1.5579,0.42093 -4.14469,-4.25601 -2.53636,-4.1237 6.42574,0.52861 14.11942,0.76845 18.56102,5.44196 4.00466,4.21376 1.75385,11.49931 2.94673,17.18878 0.86422,4.1219 2.14587,8.14512 3.2188,12.21767 2.00671,9.14169 -14.35822,12.73399 -16.36493,3.5923 l 0,0 c -0.74223,-4.1965 -1.3208,-8.42526 -2.22668,-12.58951 -1.28894,-5.92512 -6.10104,-11.85564 -4.35424,-17.66228 9.53971,-31.71153 28.11075,-13.84951 -0.40223,-7.4158 -2.19043,0.49426 -0.80627,-4.41804 -1.2094,-6.62706 -5.94121,-19.63788 -4.67881,-16.20207 -12.70839,-38.7168 -2.87428,-8.05941 -6.4455,-15.88454 -8.84528,-24.09774 -1.20985,-4.14067 -1.26086,-8.53512 -1.93457,-12.79598 -2.58535,-16.35092 -0.84265,-3.67032 -2.61734,-17.28171 0,-10.37163 18.56669,-10.37163 18.56669,0 z"
             inkscape:connector-curvature="0" />
          <path
             style="fill:#000000;fill-opacity:1;fill-rule:nonzero;stroke:none"
             id="path3071"
             d="m 211.58202,314.20027 c -9.50757,12.95282 -8.93766,12.54679 -20.15227,26.02543 -2.98052,3.58224 -6.229,6.9386 -9.15478,10.56569 -1.09725,1.36026 -1.22764,4.89732 -2.89435,4.37164 -21.1668,-6.67609 -17.86494,-7.10741 -11.18075,-15.7762 0.16863,-0.32143 0.33727,-0.64286 0.5059,-0.96429 6.21347,-8.54352 21.5076,2.57948 15.29413,11.123 l 0,0 c -0.69188,0.86179 -1.38377,1.72357 -2.07565,2.58536 0.86392,-7.49965 -0.33923,5.9252 -16.02118,-9.3223 -1.28831,-1.25261 2.88746,-2.15115 4.20494,-3.37304 3.06105,-2.83895 6.22302,-5.6059 8.91614,-8.79601 8.39508,-9.94431 10.92278,-14.99946 17.28036,-25.60578 5.12054,-8.53424 20.39805,0.63227 15.27751,9.1665 z"
             inkscape:connector-curvature="0" />
          <path
             style="fill:#000000;fill-opacity:1;fill-rule:nonzero;stroke:none"
             id="path3073"
             d="m 230.10503,283.80142 c 0.65552,8.76441 0.42642,17.64034 1.96656,26.29323 3.43864,19.31914 11.51895,44.55594 20.1454,62.4239 3.13497,6.49349 6.94668,12.71421 11.40635,18.38032 1.76885,2.24736 4.45181,3.65419 6.98356,4.98449 1.73251,0.91034 -3.03525,-2.47153 -4.55288,-3.7073 -2.76693,2.38703 -5.53386,4.77406 -8.30079,7.16109 -0.26019,-0.34271 -0.94753,-1.42469 -0.78057,-1.02812 2.85785,6.78792 5.21921,5.47397 16.00176,-0.36113 1.38305,-0.74846 0.27908,-3.13277 0.41862,-4.69916 4.13109,9.74514 -13.31411,17.14039 -17.4452,7.39525 l 0,0 c -0.38484,-2.80338 -3.12606,-6.38035 -1.15452,-8.41015 9.60448,-9.88832 14.62096,-9.26248 19.2287,-1.40989 1.00832,1.71838 2.61476,3.65622 2.12369,5.58712 -1.31142,5.15654 -4.78091,9.50692 -7.17136,14.26038 -3.56136,-0.91306 -7.65999,-0.64832 -10.68409,-2.7392 -6.30099,-4.35656 -17.01896,-28.34393 -18.07462,-30.84797 -4.18187,-9.91946 -7.69076,-20.11654 -11.09735,-30.32825 -12.3171,-36.92217 -9.65399,-28.47963 -15.19494,-62.95461 0,-9.03932 16.18168,-9.03932 16.18168,0 z"
             inkscape:connector-curvature="0" />
          <path
             style="fill:#000000;fill-opacity:1;fill-rule:nonzero;stroke:none"
             id="path3081"
             d="m 421.69734,216.63657 c 4.01027,-1.77585 8.09595,-3.39034 12.03081,-5.32755 4.91269,-2.41862 9.50905,-5.46604 14.49429,-7.73133 1.01627,-0.46179 37.68513,-15.2687 41.6963,-16.88955 8.09176,-2.98885 13.44224,11.49657 5.35047,14.48542 l 0,0 c -5.89722,1.96848 -11.95141,3.51763 -17.69166,5.90545 -17.12029,7.12168 -32.9071,16.76072 -48.65077,26.42626 -9.4231,4.03848 -16.65254,-12.83023 -7.22944,-16.8687 z"
             inkscape:connector-curvature="0" />
          <path
             style="fill:none;stroke:none"
             d="m 132.95036,185.70213 c 24.52482,139.40425 38.7234,158.76595 38.7234,158.76595 l 55.50355,-61.95744 6.4539,61.95744 29.68794,59.37589 210.39716,-96.80851 64.53901,-47.75887 21.94326,-29.68794 -58.0851,-77.44681 -214.26951,-96.808509 -46.46808,101.971629 -9.03546,69.70213 -96.80851,-63.24823 z"
             id="path3115"
             inkscape:connector-curvature="0" />
          <path
             style="fill:url(#linearGradient4285);fill-opacity:1;fill-rule:nonzero;stroke:none;filter:url(#filter5421)"
             d="m 274.5646,386.8909 c -1.03933,-1.94202 -2.61696,-2.36736 -8.06801,-2.17519 l -6.77602,0.2389 -6.4539,-12.98232 c -11.85814,-23.85318 -20.38237,-54.37645 -22.05689,-78.98056 -0.98989,-14.54463 -1.77703,-15.99831 -8.77013,-16.19653 -7.07818,-0.20064 -8.90554,2.22144 -8.27305,10.96556 0.48428,6.69506 0.19918,7.78802 -2.76868,10.61404 -2.11141,2.0105 -5.17358,3.29869 -8.46292,3.56016 -4.87674,0.38765 -5.53718,0.98058 -12.26241,11.00891 -9.41132,14.03371 -16.03549,21.81759 -19.29164,22.66909 -2.26971,0.59354 -2.66263,0.0975 -2.6757,-3.37848 -0.008,-2.24081 -0.87281,-7.26888 -1.92085,-11.17349 -1.04804,-3.90461 -1.91243,-9.91572 -1.92085,-13.35801 -0.0131,-5.34833 -0.60784,-6.81221 -4.08875,-10.06386 l -4.07342,-3.80516 2.78264,-1.94904 c 3.19132,-2.23528 3.56369,-5.21449 1.01929,-8.15491 -2.06268,-2.38373 -11.31633,-25.96311 -14.22364,-36.24349 -1.10423,-3.90461 -3.76564,-16.97375 -5.91425,-29.04255 -2.1486,-12.06879 -4.51405,-24.58995 -5.25653,-27.8248 -1.83666,-8.0019 -0.75713,-10.25321 4.91651,-10.25321 7.48649,0 26.76634,12.40111 60.03963,38.61845 11.78619,9.2868 22.167,16.88509 23.06847,16.88509 0.90146,0 2.89045,1.56944 4.41997,3.48764 3.72185,4.66764 11.05478,4.65821 15.73324,-0.0203 l 3.23237,-3.23237 -3.57226,-12.59169 c -3.96864,-13.98888 -3.96552,-20.70967 0.0186,-39.9199 3.351,-16.15767 25.26899,-80.89818 33.34465,-98.492121 4.00949,-8.735203 7.28997,-16.43148 7.28997,-17.102837 0,-0.671356 0.39577,-1.220648 0.87947,-1.220648 0.48371,0 11.08424,3.99929 23.55674,8.887312 12.4725,4.888021 33.71344,12.81309 47.20209,17.611263 42.07806,14.967971 69.51547,27.859751 107.98567,50.738291 42.46396,25.25366 68.16321,49.37241 74.57699,69.99051 0.98038,3.15154 3.43303,7.8742 5.45034,10.49481 2.01732,2.6206 3.66785,5.18627 3.66785,5.70148 0,2.55546 -20.64257,31.47216 -26.98239,37.7977 -14.42151,14.38904 -35.26805,27.86204 -64.53653,41.70956 -50.49038,23.88807 -112.43415,51.5739 -139.53073,62.36339 -10.29397,4.09892 -23.50805,9.65325 -29.36461,12.34297 -10.07271,4.62602 -10.71815,4.75988 -11.94029,2.47631 z M 444.99519,224.91863 c 18.00882,-10.60819 29.43268,-16.07484 43.19346,-20.6693 6.60601,-2.20562 9.47288,-3.8812 10.66229,-6.23167 2.11844,-4.18643 0.21359,-9.41787 -4.15371,-11.40775 -2.79944,-1.27551 -5.6507,-0.48397 -21.64648,6.00932 -10.13232,4.11307 -26.69493,11.4869 -36.80581,16.38626 -19.98782,9.68537 -21.61036,11.37801 -18.38075,19.17498 3.66957,8.85914 7.29368,8.42344 27.131,-3.26184 l 0,0 z"
             id="path3117"
             inkscape:connector-curvature="0" />
        </g>
        <g
           id="layer3"
           inkscape:label="bone" />
        <g
           inkscape:label="Layer 1 copy"
           id="g3080"
           style="display:inline">
          <path
             inkscape:connector-curvature="0"
             d="m 427.59338,114.9108 c 9.4809,6.78435 14.07187,10.33882 25.25882,16.53152 32.37724,17.92292 9.93996,2.81858 41.49127,21.77988 9.98069,5.99807 24.18273,16.04703 34.08261,22.90881 7.56947,5.87281 12.91145,9.28189 19.333,16.85656 2.45453,2.89529 4.55966,6.2308 6.71906,9.47716 1.61434,2.42694 3.21197,4.88766 4.59462,7.53143 1.41339,2.70252 3.15203,7.43056 4.37978,10.66057 1.33003,2.12594 0.52399,1.31656 2.41471,2.48243 0.52889,0.32613 1.01516,0.80073 1.58726,0.97691 0.26969,0.0831 -0.42135,-0.45516 -0.63203,-0.68274 5.4201,1.21271 3.69486,13.42201 -1.72524,12.2093 l 0,0 c -0.82376,-0.36476 -1.6879,-0.6087 -2.47129,-1.09427 -0.79216,-0.49102 -1.51361,-1.15168 -2.22212,-1.81489 -4.55464,-4.2635 -3.23689,-2.56757 -5.8058,-7.90122 -0.19459,-1.00134 -0.30139,-2.03636 -0.58378,-3.00402 -1.53758,-5.26884 -2.83523,-7.97101 -5.66884,-12.68747 -1.76586,-2.93921 -3.56822,-5.86882 -5.63,-8.48518 -5.00297,-6.34865 -11.86564,-12.29646 -17.46304,-17.54052 -11.51866,-8.6013 -21.0151,-16.04032 -33.14655,-23.55095 -6.55574,-4.05869 -13.21289,-7.8805 -19.99706,-11.29342 -7.13687,-3.59036 -14.51578,-6.36879 -21.73181,-9.69919 -12.62768,-5.82802 -16.40437,-7.83903 -27.31891,-13.38814 -4.56031,-3.188 -0.025,-13.46056 4.53534,-10.27256 z"
             id="path3082"
             style="fill:#000000;fill-opacity:1;fill-rule:nonzero;stroke:#000000;stroke-width:2.70000005;stroke-miterlimit:4;stroke-opacity:1;stroke-dasharray:none" />
          <path
             inkscape:connector-curvature="0"
             d="m 565.68385,231.88286 c -1.42426,2.47706 -6.18028,10.75885 -7.1291,12.35236 -1.87419,3.14764 -3.62177,6.43725 -5.70163,9.36462 -4.17078,5.87033 -10.90163,13.48317 -16.21748,17.60265 -4.28571,3.32118 -8.90551,5.8747 -13.35827,8.81205 -7.78746,4.14752 -32.19994,17.13579 -38.97946,20.8084 -7.68807,4.16479 -15.33029,8.46821 -23.0235,12.61735 -7.46284,4.02489 -15.05334,7.6656 -22.44389,11.90434 -10.96912,6.29118 -8.84383,3.63941 -12.8231,9.55719 -5.01728,1.29358 -6.82241,-10.22843 -1.80513,-11.52201 l 0,0 c 2.6612,6.22531 0.60972,2.58344 12.96317,-3.25146 15.07513,-7.12045 30.65648,-16.29542 45.26279,-24.78475 6.9591,-4.04469 13.90289,-8.13302 20.83167,-12.26253 5.6628,-3.37498 11.29502,-6.83374 16.94253,-10.25062 8.01781,-6.04348 13.11378,-9.14273 19.91919,-16.55921 2.38571,-2.59993 4.6854,-5.36285 6.72341,-8.41095 1.96281,-2.93564 3.51988,-6.28105 5.22972,-9.46649 3.94871,-7.35647 3.41415,-6.4834 6.61316,-13.69065 3.12642,-5.01336 10.12234,2.16635 6.99592,7.17971 z"
             id="path3084"
             style="fill:#000000;fill-opacity:1;fill-rule:nonzero;stroke:#000000;stroke-width:2.79999995;stroke-miterlimit:4;stroke-opacity:1;stroke-dasharray:none" />
          <path
             inkscape:connector-curvature="0"
             d="m 220.99789,234.41629 c -21.08673,-16.07547 -40.974,-33.69012 -63.63245,-47.62447 -5.58953,-3.43742 -11.31328,-6.75876 -17.40575,-9.19607 -1.9904,-0.79627 -7.5015,1.51593 -6.42249,-0.3365 2.5677,-4.40822 8.05792,-6.25875 12.08689,-9.38812 -3.65911,-7.41113 -0.57434,-4.76718 -11.39354,-4.3294 8.30932,-6.7266 20.35088,8.14828 12.04156,14.87487 l 0,0 c -14.43394,2.33039 -8.06284,4.1674 -19.05754,-5.70086 3.76005,-4.15124 6.09163,-10.34422 11.28015,-12.45371 3.0831,-1.2535 6.17631,2.53155 9.06687,4.18123 6.07035,3.46441 12.0119,7.16906 17.76801,11.13372 7.5192,5.17902 14.55693,11.03108 22.02923,16.27754 21.05648,14.78421 25.13634,16.97362 44.70711,29.03415 7.55673,6.18277 -3.51133,19.71039 -11.06805,13.52762 z"
             id="path3088"
             style="fill:#000000;fill-opacity:1;fill-rule:nonzero;stroke:none" />
          <path
             inkscape:connector-curvature="0"
             d="m 135.7798,194.73759 c 0.51245,8.56827 0.16609,3.95114 1.255,14.98779 0.42821,4.34013 0.3967,8.75139 1.29238,13.01962 1.54291,7.3525 3.76718,14.55138 5.99869,21.72495 5.91833,19.02552 7.24613,21.34007 14.0753,37.76193 1.04899,2.09358 4.6393,4.47618 3.14698,6.28074 -3.88417,4.69685 -9.97831,7.50507 -15.86217,9.09484 -1.5579,0.42093 -4.14469,-4.25601 -2.53636,-4.1237 6.42574,0.52861 14.11942,0.76845 18.56102,5.44196 4.00466,4.21376 1.75385,11.49931 2.94673,17.18878 0.86422,4.1219 2.14587,8.14512 3.2188,12.21767 2.00671,9.14169 -14.35822,12.73399 -16.36493,3.5923 l 0,0 c -0.74223,-4.1965 -1.3208,-8.42526 -2.22668,-12.58951 -1.28894,-5.92512 -6.10104,-11.85564 -4.35424,-17.66228 9.53971,-31.71153 28.11075,-13.84951 -0.40223,-7.4158 -2.19043,0.49426 -0.80627,-4.41804 -1.2094,-6.62706 -5.94121,-19.63788 -4.67881,-16.20207 -12.70839,-38.7168 -2.87428,-8.05941 -6.4455,-15.88454 -8.84528,-24.09774 -1.20985,-4.14067 -1.26086,-8.53512 -1.93457,-12.79598 -2.58535,-16.35092 -0.84265,-3.67032 -2.61734,-17.28171 0,-10.37163 18.56669,-10.37163 18.56669,0 z"
             id="path3090"
             style="fill:#000000;fill-opacity:1;fill-rule:nonzero;stroke:none" />
          <path
             inkscape:connector-curvature="0"
             d="m 211.58202,314.20027 c -9.50757,12.95282 -8.93766,12.54679 -20.15227,26.02543 -2.98052,3.58224 -6.229,6.9386 -9.15478,10.56569 -1.09725,1.36026 -1.22764,4.89732 -2.89435,4.37164 -21.1668,-6.67609 -17.86494,-7.10741 -11.18075,-15.7762 0.16863,-0.32143 0.33727,-0.64286 0.5059,-0.96429 6.21347,-8.54352 21.5076,2.57948 15.29413,11.123 l 0,0 c -0.69188,0.86179 -1.38377,1.72357 -2.07565,2.58536 0.86392,-7.49965 -0.33923,5.9252 -16.02118,-9.3223 -1.28831,-1.25261 2.88746,-2.15115 4.20494,-3.37304 3.06105,-2.83895 6.22302,-5.6059 8.91614,-8.79601 8.39508,-9.94431 10.92278,-14.99946 17.28036,-25.60578 5.12054,-8.53424 20.39805,0.63227 15.27751,9.1665 z"
             id="path3092"
             style="fill:#000000;fill-opacity:1;fill-rule:nonzero;stroke:none" />
          <path
             inkscape:connector-curvature="0"
             d="m 421.69734,216.63657 c 4.01027,-1.77585 8.09595,-3.39034 12.03081,-5.32755 4.91269,-2.41862 9.50905,-5.46604 14.49429,-7.73133 1.01627,-0.46179 37.68513,-15.2687 41.6963,-16.88955 8.09176,-2.98885 13.44224,11.49657 5.35047,14.48542 l 0,0 c -5.89722,1.96848 -11.95141,3.51763 -17.69166,5.90545 -17.12029,7.12168 -32.9071,16.76072 -48.65077,26.42626 -9.4231,4.03848 -16.65254,-12.83023 -7.22944,-16.8687 z"
             id="path3096"
             style="fill:#ffffff;fill-opacity:1;fill-rule:nonzero;stroke:none" />
          <path
             inkscape:connector-curvature="0"
             id="path3098"
             d="m 132.95036,185.70213 c 24.52482,139.40425 38.7234,158.76595 38.7234,158.76595 l 55.50355,-61.95744 6.4539,61.95744 29.68794,59.37589 210.39716,-96.80851 64.53901,-47.75887 21.94326,-29.68794 -58.0851,-77.44681 -214.26951,-96.808509 -46.46808,101.971629 -9.03546,69.70213 -96.80851,-63.24823 z"
             style="fill:none;stroke:none" />
          <path
             style="fill:#000000;fill-opacity:1;fill-rule:nonzero;stroke:none"
             id="path3930"
             d="m 238.77476,247.60088 c 8.62423,-3.96818 17.64974,-6.9493 26.86379,-9.19277 1.57408,-0.38326 3.18527,-0.60191 4.75909,-0.98625 2.09691,-0.51207 4.12139,-1.3319 6.24801,-1.70173 4.46728,-0.77689 8.99492,-1.15415 13.49238,-1.73122 5.11305,-0.58911 10.21238,-1.31288 15.33915,-1.76735 5.40038,-0.47872 10.81164,-0.91479 16.23194,-1.03128 3.26596,0.15728 6.53191,0.31457 9.79787,0.47185 -0.16766,0.27159 -0.468,0.49751 -0.50296,0.81475 -1.75899,15.9605 3.89995,15.34859 -3.28561,15.27573 -0.67974,-5.24524 -3.67035,-10.70443 -2.03921,-15.73574 0.81189,-2.50427 5.09491,-1.38834 7.70417,-1.73804 6.24305,-0.83669 12.53946,-1.21018 18.80919,-1.81527 19.68747,-0.26909 19.95736,19.47721 0.26989,19.7463 l 0,0 c -5.78091,-0.44038 -11.57396,-0.74315 -17.34274,-1.32114 -0.86517,-0.0867 -2.16203,0.12273 -2.52123,-0.66911 -2.09789,-4.62476 -2.9326,-9.7241 -4.39891,-14.58614 8.06419,0.33505 6.89916,-0.80069 7.32299,16.04213 0.0325,1.29328 -2.2235,1.42838 -3.48788,1.70216 -5.04787,1.093 -22.0168,1.7709 -24.87534,1.94146 -5.26763,0.3143 -10.53395,0.65037 -15.80093,0.97555 -3.56991,-0.0392 -7.14739,-0.35335 -10.70974,-0.11774 -4.03707,0.26701 -6.34102,1.5055 -9.96808,2.79784 -8.77425,3.1263 -17.57378,6.287 -26.70359,8.23276 -15.56025,5.18675 -20.7625,-10.42 -5.20225,-15.60675 z"
             inkscape:connector-curvature="0" />
          <g
             id="g4129">
            <path
               inkscape:connector-curvature="0"
               d="m 243.88422,277.71816 c 0.49447,8.28921 -0.66973,16.74026 1.44104,24.90912 0.42234,1.6345 1.04428,3.22146 1.56641,4.83218 1.93681,5.79657 4.44759,11.41013 6.72293,17.09725 2.44953,6.12252 4.71829,12.31544 6.99975,18.49059 1.854,6.04885 5.25,11.45742 9.20929,16.5556 0.82262,1.05926 3.72377,4.68408 5.23282,5.88462 0.40671,0.32357 0.95052,0.46994 1.42577,0.70491 0.56145,0.35594 2.21958,1.30795 2.61238,1.92036 0.7327,1.14237 1.06952,3.14546 0.8351,1.84854 2.17957,4.57673 -2.89441,6.55447 -5.07398,1.97774 l 0,0 c -0.30119,-0.80024 -0.84476,-1.87629 0.3306,-0.19525 0.35575,0.50881 -3.09502,-3.41243 -1.61964,-1.05599 -0.91522,-0.50314 -1.90691,-0.90698 -2.74565,-1.50942 -2.18868,-1.57208 -4.67318,-4.52644 -6.19043,-6.41109 -4.51005,-5.60215 -7.82353,-11.19229 -9.95782,-17.88658 -2.34581,-6.09885 -4.58187,-12.23598 -6.97626,-18.3191 -2.30004,-5.84346 -4.84492,-11.61406 -6.73969,-17.58361 -1.1463,-3.79236 -2.11942,-6.43001 -2.64307,-10.30928 -0.93791,-6.94817 -0.26224,-13.97939 -0.28215,-20.95059 0,-5.27906 5.8526,-5.27906 5.8526,0 z"
               id="path3985"
               style="fill:#000000;fill-opacity:1;fill-rule:nonzero;stroke:none" />
            <path
               style="fill:#000000;fill-opacity:1;fill-rule:nonzero;stroke:none"
               id="path4009"
               d="m 263.05133,271.93801 c 0.49447,8.28921 -0.66973,16.74026 1.44104,24.90912 0.42234,1.6345 1.04428,3.22146 1.56641,4.83218 1.93681,5.79657 4.44759,11.41014 6.72293,17.09725 2.44953,6.12252 4.71829,12.31544 6.99975,18.4906 1.854,6.04884 5.25,11.45741 9.20929,16.5556 0.82262,1.05925 3.72377,4.68407 5.23282,5.88462 0.40671,0.32356 0.95052,0.46993 1.42577,0.7049 0.56145,0.35595 2.21958,1.30795 2.61238,1.92037 0.7327,1.14237 1.06952,3.14546 0.8351,1.84853 2.17957,4.57674 -2.89441,6.55448 -5.07398,1.97774 l 0,0 c -0.30119,-0.80023 -0.84476,-1.87629 0.3306,-0.19524 0.35575,0.5088 -3.09502,-3.41244 -1.61964,-1.05599 -0.91522,-0.50315 -1.90691,-0.90699 -2.74565,-1.50943 -2.18868,-1.57207 -4.67318,-4.52643 -6.19043,-6.41109 -4.51005,-5.60215 -7.82353,-11.19228 -9.95782,-17.88657 -2.34581,-6.09886 -4.58187,-12.23599 -6.97626,-18.31911 -2.30004,-5.84346 -4.84492,-11.61406 -6.73969,-17.58361 -1.1463,-3.79236 -2.11942,-6.43001 -2.64307,-10.30928 -0.93791,-6.94816 -0.26224,-13.97939 -0.28215,-20.95059 0,-5.27905 5.8526,-5.27905 5.8526,0 z"
               inkscape:connector-curvature="0" />
            <path
               inkscape:connector-curvature="0"
               d="m 281.95865,267.67957 c 0.4733,8.01754 -0.64107,16.19162 1.37936,24.09275 0.40426,1.58094 0.99958,3.11588 1.49936,4.67382 1.85391,5.60659 4.25722,11.03617 6.43517,16.5369 2.34468,5.92186 4.51633,11.91181 6.70014,17.88459 1.77464,5.85059 5.02528,11.0819 8.81511,16.013 0.7874,1.02455 3.56438,4.53056 5.00884,5.69176 0.3893,0.31296 0.90983,0.45454 1.36474,0.6818 0.53742,0.34428 2.12457,1.26508 2.50056,1.85743 0.70134,1.10493 1.02374,3.04237 0.79936,1.78795 2.08627,4.42674 -2.77052,6.33966 -4.8568,1.91292 l 0,0 c -0.2883,-0.77401 -0.8086,-1.81479 0.31645,-0.18884 0.34052,0.49213 -2.96255,-3.3006 -1.55032,-1.02139 -0.87604,-0.48665 -1.82529,-0.87725 -2.62813,-1.45995 -2.09499,-1.52055 -4.47315,-4.37809 -5.92546,-6.20098 -4.317,-5.41854 -7.48866,-10.82546 -9.53159,-17.30035 -2.24541,-5.89897 -4.38576,-11.83496 -6.67766,-17.71872 -2.20159,-5.65195 -4.63754,-11.23343 -6.45121,-17.00732 -1.09724,-3.66808 -2.0287,-6.21928 -2.52994,-9.97141 -0.89777,-6.72045 -0.25102,-13.52123 -0.27007,-20.26396 0,-5.10604 5.60209,-5.10604 5.60209,0 z"
               id="path4011"
               style="fill:#000000;fill-opacity:1;fill-rule:nonzero;stroke:none" />
            <path
               style="fill:#000000;fill-opacity:1;fill-rule:nonzero;stroke:none"
               id="path4015"
               d="m 306.21239,264.18199 c 0.44155,7.61003 -0.59807,15.36864 1.28684,22.86819 0.37714,1.50059 0.93253,2.9575 1.39879,4.43627 1.72956,5.32162 3.97167,10.47524 6.00353,15.69638 2.18741,5.62087 4.21339,11.30637 6.25072,16.97557 1.65561,5.55323 4.68821,10.51865 8.22384,15.19911 0.73458,0.97248 3.3253,4.30029 4.67287,5.40248 0.36319,0.29705 0.8488,0.43143 1.2732,0.64714 0.50137,0.32678 1.98206,1.20078 2.33283,1.76302 0.6543,1.04877 0.95507,2.88773 0.74574,1.69707 1.94634,4.20175 -2.58468,6.01745 -4.53102,1.81571 l 0,0 c -0.26897,-0.73468 -0.75437,-1.72256 0.29522,-0.17925 0.31768,0.46712 -2.76384,-3.13285 -1.44633,-0.96947 -0.81728,-0.46192 -1.70286,-0.83267 -2.45185,-1.38574 -1.95447,-1.44329 -4.17311,-4.15557 -5.52801,-5.88581 -4.02743,-5.14314 -6.98635,-10.27525 -8.89225,-16.42104 -2.0948,-5.59915 -4.09159,-11.23343 -6.22976,-16.81814 -2.05391,-5.36467 -4.32647,-10.66246 -6.01849,-16.14289 -1.02364,-3.48164 -1.89262,-5.90317 -2.36024,-9.46458 -0.83755,-6.37888 -0.23418,-12.83401 -0.25196,-19.23402 0,-4.84652 5.22633,-4.84652 5.22633,0 z"
               inkscape:connector-curvature="0" />
            <path
               inkscape:connector-curvature="0"
               d="m 328.77058,259.85867 c 0.42039,7.20252 -0.56941,14.54568 1.22516,21.64364 0.35906,1.42022 0.88783,2.79913 1.33174,4.1987 1.64666,5.03667 3.7813,9.91431 5.71577,14.85587 2.08256,5.31988 4.01144,10.70094 5.95111,16.06657 1.57625,5.25585 4.4635,9.95539 7.82965,14.38522 0.69938,0.92039 3.16591,4.07002 4.44889,5.11318 0.34578,0.28115 0.80812,0.40832 1.21218,0.61249 0.47734,0.30928 1.88706,1.13648 2.22101,1.66861 0.62294,0.99261 0.9093,2.73311 0.71,1.6062 1.85304,3.97675 -2.4608,5.69521 -4.31385,1.71846 l 0,0 c -0.25607,-0.69531 -0.7182,-1.63031 0.28108,-0.16964 0.30245,0.4421 -2.63136,-2.96508 -1.37701,-0.91755 -0.7781,-0.43719 -1.62124,-0.78809 -2.33433,-1.31155 -1.86078,-1.36598 -3.97308,-3.93304 -5.26303,-5.57062 -3.8344,-4.86773 -6.65149,-9.72503 -8.46604,-15.54172 -1.99439,-5.29932 -3.89546,-10.63191 -5.93115,-15.91755 -1.95547,-5.07741 -4.11909,-10.09151 -5.73001,-15.27848 -0.97458,-3.2952 -1.80191,-5.58706 -2.24711,-8.95778 -0.79741,-6.03729 -0.22296,-12.14675 -0.23988,-18.20405 0,-4.58699 4.97582,-4.58699 4.97582,0 z"
               id="path4019"
               style="fill:#000000;fill-opacity:1;fill-rule:nonzero;stroke:none" />
            <path
               style="fill:#000000;fill-opacity:1;fill-rule:nonzero;stroke:none"
               id="path4021"
               d="m 351.47927,257.0895 c 0.33713,6.59127 -0.45663,13.31123 0.9825,19.80681 0.28796,1.29969 0.712,2.56158 1.06799,3.84237 1.32053,4.60922 3.0324,9.07291 4.58374,13.5951 1.6701,4.8684 3.21695,9.79277 4.77247,14.70304 1.26406,4.80981 3.57947,9.11051 6.27895,13.16439 0.56086,0.84229 2.53888,3.72461 3.56776,4.67923 0.2773,0.25729 0.64807,0.37368 0.9721,0.56052 0.38279,0.28303 1.51332,1.04003 1.78114,1.527 0.49956,0.90837 0.7292,2.50115 0.56937,1.46989 1.48604,3.63924 -1.97342,5.21187 -3.45947,1.57263 l 0,0 c -0.20535,-0.63632 -0.57596,-1.49196 0.2254,-0.15526 0.24256,0.40458 -2.1102,-2.71344 -1.10427,-0.83969 -0.62401,-0.40008 -1.30014,-0.72119 -1.872,-1.20023 -1.49226,-1.25006 -3.1862,-3.59926 -4.22068,-5.09786 -3.07497,-4.45462 -5.33412,-8.89969 -6.78929,-14.22274 -1.59939,-4.84958 -3.12395,-9.7296 -4.75646,-14.56668 -1.56818,-4.64649 -3.30329,-9.23506 -4.59516,-13.98183 -0.78155,-3.01555 -1.44503,-5.11291 -1.80206,-8.19755 -0.63947,-5.52493 -0.17879,-11.1159 -0.19237,-16.65914 0,-4.19771 3.99034,-4.19771 3.99034,0 z"
               inkscape:connector-curvature="0" />
            <path
               inkscape:connector-curvature="0"
               d="m 368.64286,255.1602 c 0.25247,6.3665 -0.34197,12.85728 0.73578,19.13133 0.21564,1.25538 0.53321,2.47422 0.79981,3.71133 0.98891,4.45203 2.2709,8.7635 3.43268,13.13146 1.25072,4.70237 2.40912,9.45881 3.57404,14.20162 0.94663,4.64579 2.68061,8.79981 4.7022,12.71544 0.42002,0.81357 1.90133,3.59759 2.67185,4.51967 0.20767,0.2485 0.48533,0.36093 0.728,0.54139 0.28666,0.27339 1.13329,1.00458 1.33385,1.47494 0.37413,0.87739 0.5461,2.41584 0.42641,1.41974 1.11287,3.51514 -1.47788,5.03414 -2.59075,1.519 l 0,0 c -0.15379,-0.61461 -0.43133,-1.44107 0.1688,-0.14995 0.18165,0.39078 -1.5803,-2.62091 -0.82697,-0.81106 -0.46732,-0.38644 -0.97366,-0.6966 -1.40193,-1.15929 -1.11751,-1.20743 -2.38609,-3.47652 -3.16079,-4.92402 -2.30281,-4.30271 -3.99464,-8.59617 -5.0844,-13.7377 -1.19776,-4.6842 -2.33949,-9.39779 -3.56204,-14.0699 -1.17439,-4.48804 -2.47379,-8.92012 -3.44125,-13.505 -0.5853,-2.91272 -1.08216,-4.93855 -1.34954,-7.918 -0.47888,-5.33651 -0.13389,-10.73681 -0.14406,-16.091 0,-4.05456 2.98831,-4.05456 2.98831,0 z"
               id="path4023"
               style="fill:#000000;fill-opacity:1;fill-rule:nonzero;stroke:none" />
          </g>
          <g
             id="g4138">
            <path
               style="fill:#000000;fill-opacity:1;fill-rule:nonzero;stroke:none"
               id="path4052"
               d="m 288.93231,85.899044 c -5.74639,10.542312 -13.18188,19.964476 -17.31036,31.644086 -0.82607,2.33695 -1.42784,4.77433 -2.14178,7.1615 -2.51461,8.6367 -4.34951,17.50551 -6.46208,26.27728 -2.27434,9.44329 -4.77229,18.82911 -7.24493,28.20329 -2.78198,8.87976 -3.62654,18.20116 -3.706,27.59023 -0.0165,1.95077 0.008,8.69484 0.53471,11.36416 0.14186,0.71943 0.54614,1.33086 0.8192,1.99631 0.26383,0.88205 1.11743,3.36557 1.02962,4.42761 -0.16382,1.98107 -1.34702,4.70135 -0.59638,2.92709 -1.37074,7.33606 -7.64912,5.72481 -6.27838,-1.61127 l 0,0 c 0.31519,-1.21918 0.60806,-2.96874 0.45884,0.0238 -0.0451,0.90573 -0.36732,-6.63811 -0.73927,-2.58024 -0.48786,-1.34348 -1.12247,-2.62614 -1.46363,-4.03038 -0.89023,-3.66442 -1.02388,-9.25641 -1.04517,-12.7699 -0.0633,-10.44386 0.99534,-19.92198 3.99622,-29.81481 2.35463,-9.33188 4.84168,-18.62343 7.13858,-27.97466 2.20644,-8.9828 4.12684,-18.071 6.81084,-26.88609 1.75937,-5.55444 2.81684,-9.55742 5.22989,-14.7234 4.322,-9.252778 10.23139,-17.324798 15.43832,-25.876164 3.95731,-6.463676 9.48906,-1.812028 5.53176,4.651649 z"
               inkscape:connector-curvature="0" />
            <path
               inkscape:connector-curvature="0"
               d="m 307.37199,92.105676 c -5.51592,9.605754 -12.65315,18.190864 -16.61604,28.832884 -0.79295,2.12934 -1.37057,4.35019 -2.05588,6.52528 -2.41373,7.86943 -4.17504,15.95036 -6.20288,23.94285 -2.18311,8.60438 -4.58088,17.15638 -6.95435,25.69776 -2.67038,8.09091 -3.48106,16.58421 -3.55733,25.13916 -0.0159,1.77748 0.008,7.92241 0.51326,10.35461 0.13616,0.65552 0.52423,1.21264 0.78633,1.81895 0.25327,0.8037 1.07261,3.06658 0.98833,4.03427 -0.15725,1.80508 -1.293,4.28369 -0.57246,2.66705 -1.31575,6.68434 -7.34231,5.21624 -6.02656,-1.46812 l 0,0 c 0.30257,-1.11088 0.58367,-2.705 0.44043,0.0216 -0.0433,0.82528 -0.35258,-6.04839 -0.70959,-2.35101 -0.46832,-1.22413 -1.07746,-2.39283 -1.40494,-3.67234 -0.85454,-3.33887 -0.98281,-8.43408 -1.00326,-11.63544 -0.0607,-9.51604 0.95542,-18.15215 3.83596,-27.16611 2.26017,-8.50287 4.64745,-16.96896 6.85224,-25.48944 2.11793,-8.18479 3.96131,-16.46561 6.53765,-24.49758 1.68881,-5.06101 2.70387,-8.70836 5.02011,-13.4154 4.14865,-8.43078 9.82101,-15.785698 14.8191,-23.577376 3.79857,-5.889456 9.10845,-1.651052 5.30988,4.238405 z"
               id="path4054"
               style="fill:#000000;fill-opacity:1;fill-rule:nonzero;stroke:none" />
            <path
               style="fill:#000000;fill-opacity:1;fill-rule:nonzero;stroke:none"
               id="path4056"
               d="m 328.2434,103.40578 c -5.2411,8.72724 -12.0066,16.53815 -15.78772,26.19621 -0.75657,1.93247 -1.31052,3.94675 -1.96578,5.9201 -2.30884,7.13927 -4.0034,14.46684 -5.94891,21.71565 -2.09446,7.80374 -4.3911,15.56113 -6.66477,23.30877 -2.55177,7.34113 -3.35174,15.03746 -3.45951,22.78601 -0.0224,1.6099 -0.0257,7.17521 0.44055,9.37553 0.12564,0.59302 0.4892,1.09567 0.73379,1.64349 0.23543,0.72664 0.99848,2.77204 0.91495,3.6489 -0.15582,1.63562 -1.23708,3.88613 -0.55092,2.41837 -1.26862,6.06048 -6.94476,4.76077 -5.67614,-1.29974 l 0,0 c 0.28992,-1.00762 0.56166,-2.4528 0.41518,0.0174 -0.0443,0.74766 -0.30709,-5.47623 -0.65922,-2.12578 -0.43642,-1.10634 -1.00588,-2.16182 -1.30928,-3.31903 -0.79172,-3.01973 -0.89133,-7.63379 -0.89718,-10.53313 -0.0174,-8.61831 0.97693,-16.44499 3.73068,-24.62317 2.1667,-7.71219 4.45311,-15.39172 6.56765,-23.1196 2.03126,-7.42341 3.80404,-14.93244 6.26688,-22.2197 1.61355,-4.59211 2.5859,-7.90052 4.78957,-12.17516 3.94698,-7.65629 9.32614,-14.34574 14.07138,-21.427413 3.60626,-5.352895 8.59505,-1.540577 4.9888,3.812313 z"
               inkscape:connector-curvature="0" />
            <path
               inkscape:connector-curvature="0"
               d="m 350.31262,113.89832 c -4.54505,7.65635 -10.38927,14.52455 -13.6904,22.98221 -0.66054,1.69229 -1.1481,3.45443 -1.72217,5.18164 -2.02392,6.24823 -3.52315,12.65616 -5.23672,18.99724 -1.84475,6.82653 -3.86233,13.61414 -5.86016,20.39307 -2.23326,6.42625 -2.96895,13.14924 -3.11231,19.91253 -0.0298,1.40521 -0.0693,6.2623 0.31539,8.17908 0.10366,0.5166 0.41163,0.95252 0.61745,1.42879 0.19678,0.63238 0.83664,2.4117 0.75933,3.1776 -0.1442,1.42866 -1.08483,3.40096 -0.48766,2.11478 -1.12616,5.29888 -5.97759,4.20759 -4.85143,-1.09128 l 0,0 c 0.25488,-0.8816 0.49708,-2.14492 0.35537,0.012 -0.0429,0.65284 -0.22683,-4.77702 -0.55041,-1.85026 -0.36638,-0.96224 -0.847,-1.87907 -1.09915,-2.88672 -0.65796,-2.62947 -0.71283,-6.65559 -0.69873,-9.18593 0.0419,-7.52142 0.94488,-14.35963 3.35662,-21.51794 1.90601,-6.74719 3.91429,-13.46676 5.77575,-20.22725 1.78814,-6.49411 3.35553,-13.061 5.51229,-19.43958 1.41182,-4.01994 2.26619,-6.9147 4.18118,-10.66206 3.42995,-6.7119 8.07978,-12.59084 12.18941,-18.80729 3.12303,-4.69904 7.36938,-1.40968 4.24635,3.28935 z"
               id="path4058"
               style="fill:#000000;fill-opacity:1;fill-rule:nonzero;stroke:none" />
            <path
               style="fill:#000000;fill-opacity:1;fill-rule:nonzero;stroke:none"
               id="path4060"
               d="m 371.48167,122.93853 c -4.07096,6.96418 -9.31254,13.20657 -12.26257,20.90435 -0.59028,1.54023 -1.02481,3.1446 -1.53721,4.71691 -1.80619,5.68802 -3.13998,11.52299 -4.66674,17.29645 -1.64367,6.21546 -3.44287,12.39499 -5.22437,18.56667 -1.9941,5.84963 -2.64025,11.97381 -2.75345,18.13633 -0.0236,1.28039 -0.0477,5.70623 0.30282,7.45391 0.0945,0.47104 0.37254,0.8691 0.55881,1.30366 0.17851,0.5768 0.75828,2.19994 0.69053,2.89763 -0.12639,1.30145 -0.96801,3.09609 -0.43378,1.92572 -1.00077,4.82539 -5.36776,3.81758 -4.367,-1.00782 l 0,0 c 0.22724,-0.80262 0.44218,-1.95313 0.31973,0.0119 -0.0371,0.59477 -0.21521,-4.35359 -0.49949,-1.68754 -0.33184,-0.87783 -0.76635,-1.71462 -0.99555,-2.63351 -0.59805,-2.39786 -0.65679,-6.06673 -0.65002,-8.37242 0.0201,-6.85365 0.81653,-13.08236 2.96948,-19.59859 1.69895,-6.14298 3.48997,-12.26054 5.14881,-18.41577 1.5935,-5.91272 2.98824,-11.89233 4.91363,-17.69876 1.26072,-3.6592 2.02257,-6.29465 3.73661,-9.70409 3.06998,-6.10663 7.23936,-11.45086 10.92197,-17.10414 2.79859,-4.2733 6.62637,-1.26423 3.82779,3.00907 z"
               inkscape:connector-curvature="0" />
            <path
               inkscape:connector-curvature="0"
               d="m 392.2851,128.82077 c -3.47251,6.72109 -7.9538,12.73744 -10.46018,20.17446 -0.50149,1.48807 -0.86889,3.03901 -1.30334,4.55852 -1.53088,5.49723 -2.6552,11.13916 -3.9456,16.72055 -1.3892,6.0087 -2.91222,11.98178 -4.42003,17.94739 -1.69176,5.65274 -2.224,11.57816 -2.29805,17.54342 -0.0153,1.23942 -0.0195,5.52387 0.28836,7.21757 0.0829,0.45648 0.32345,0.84328 0.48517,1.26492 0.15559,0.55929 0.66001,2.1336 0.60441,2.80869 -0.10373,1.25926 -0.82027,2.99231 -0.36555,1.86204 -0.8419,4.66625 -4.59888,3.66828 -3.75699,-0.99799 l 0,0 c 0.19228,-0.77584 0.37266,-1.88855 0.27483,0.013 -0.0296,0.5756 -0.20137,-4.21575 -0.43563,-1.63623 -0.28853,-0.85152 -0.66512,-1.66381 -0.86556,-2.55455 -0.52304,-2.32439 -0.58735,-5.87648 -0.59023,-8.10854 -0.009,-6.63481 0.65244,-12.66067 2.47821,-18.95791 1.43698,-5.93825 2.9532,-11.85139 4.35567,-17.8017 1.34722,-5.71586 2.52337,-11.49752 4.15625,-17.10877 1.06973,-3.53599 1.71456,-6.08341 3.1748,-9.37527 2.61547,-5.89603 6.17867,-11.04839 9.32235,-16.50241 2.38912,-4.12259 5.69022,-1.18998 3.30111,2.93264 z"
               id="path4062"
               style="fill:#000000;fill-opacity:1;fill-rule:nonzero;stroke:none" />
          </g>
          <path
             style="fill:none;stroke:none"
             id="path4083"
             d="m 171.59125,232.27676 c 6.38692,0.0323 12.78469,-0.26839 19.1671,0.10751 0.45986,0.0271 0.90923,0.16106 1.36908,0.18814 0.53152,0.0313 1.06691,-0.0605 1.59726,-0.0134 2.06882,0.18376 4.12724,0.47014 6.19086,0.70521 1.93677,0.30156 3.87354,0.60313 5.81031,0.90469 6.07737,0.95331 5.12121,7.04885 -0.95617,6.09554 l 0,0 c -1.94228,-0.30692 -3.88457,-0.61383 -5.82686,-0.92075 -1.73938,-0.37341 -3.46324,-0.82832 -5.21814,-1.12023 -1.37926,-0.22942 -1.6569,0.0976 -2.96634,0.17471 -6.38241,0.37589 -12.78018,0.0752 -19.1671,0.10751 -6.21033,0 -6.21033,-6.22889 0,-6.22889 z"
             inkscape:connector-curvature="0" />
          <path
             style="fill:#000000;fill-opacity:1;fill-rule:nonzero;stroke:none"
             id="path4101"
             d="m 162.46405,221.53914 c 15.52993,3.40214 29.93518,10.32275 44.40109,16.68423 13.97124,6.14395 8.07846,2.99263 16.93073,8.09183 5.51709,2.63316 2.87606,8.16674 -2.64103,5.53358 l 0,0 c -6.59618,-2.51005 -9.72157,-3.64651 -17.29625,-6.96804 -7.9241,-3.47475 -17.93062,-8.50124 -26.05828,-11.84387 -2.94813,-1.21246 -5.99754,-2.16259 -8.98561,-3.27294 -2.12416,-0.78933 -4.23377,-1.61729 -6.35065,-2.42594 -5.78157,0 -5.78157,-5.79885 0,-5.79885 z"
             inkscape:connector-curvature="0" />
          <path
             style="fill:#000000;fill-opacity:1;fill-rule:nonzero;stroke:none"
             id="path4107"
             d="m 165.41219,249.73901 c 11.30147,2.444 13.46982,3.21136 25.89074,4.4196 4.97183,0.48362 9.97361,0.58216 14.96041,0.87324 7.24573,0.43259 6.81186,7.69997 -0.43387,7.26739 l 0,0 c -5.20523,-0.3174 -10.43375,-0.36689 -15.61569,-0.95219 -12.46078,-1.40746 -15.65618,-2.63092 -27.04699,-5.62032 -5.96987,-2.23871 -3.72448,-8.22642 2.2454,-5.98772 z"
             inkscape:connector-curvature="0" />
          <path
             style="fill:#000000;fill-opacity:1;fill-rule:nonzero;stroke:none"
             id="path4109"
             d="m 177.98028,270.71848 c 11.96689,-2.03889 23.71745,-5.72976 34.65058,-11.02973 1.06869,-0.51806 2.04949,-2.76494 2.95276,-1.99385 4.01594,3.42827 -1.93291,3.75445 -2.58085,3.8424 -1.53202,-0.0293 -3.59792,0.19954 -4.17075,-2.1531 -0.35818,-1.47101 0.81449,-2.91638 1.22174,-4.37457 3.65005,-4.29418 7.95705,-0.63322 4.307,3.66096 l 0,0 c -0.23926,-0.6976 -0.20829,-1.55958 -0.71778,-2.09278 -1.00021,-1.04675 -4.55206,-0.72887 0.27875,-0.78402 1.38568,0.37426 3.24598,0.0137 4.15704,1.12278 3.54557,4.31636 0.85843,6.86158 -2.64424,8.94025 -8.27804,4.91262 -16.46373,7.3273 -25.94395,9.38912 -3.78026,0.82216 -7.67353,0.99094 -11.5103,1.48641 -5.99595,0 -5.99595,-6.01387 0,-6.01387 z"
             inkscape:connector-curvature="0" />
          <path
             style="fill:#000000;fill-opacity:1;fill-rule:nonzero;stroke:none"
             id="path4115"
             d="m 178.43655,295.85874 c 2.93739,-2.48912 5.96404,-4.87657 8.81217,-7.46735 2.79949,-2.54654 12.0707,-11.6804 14.74144,-15.06899 1.67579,-2.1262 3.07914,-4.46328 4.40101,-6.82583 0.57542,-1.02842 0.43598,-2.46388 1.2652,-3.30122 0.4892,-0.494 -0.0404,1.38989 -0.0606,2.08483 3.89137,1.97454 2.55962,1.75313 -1.05245,-3.91093 2.79869,-4.86729 7.68054,-2.06023 4.88184,2.80706 l 0,0 c -5.7907,-3.49131 -6.24213,-2.59961 0.0314,-2.99821 0.6263,1.30343 1.81245,2.46572 1.87891,3.91028 0.17041,3.70379 -5.09584,10.93914 -6.42732,12.69093 -2.03123,2.6724 -4.35409,5.11559 -6.68294,7.53305 -8.72956,9.06174 -8.20924,8.06303 -18.13758,15.56658 -5.00525,3.64018 -8.6563,-1.38002 -3.65106,-5.0202 z"
             inkscape:connector-curvature="0" />
          <path
             style="fill:#000000;fill-opacity:1;stroke:#000000;stroke-width:1px;stroke-linecap:butt;stroke-linejoin:miter;stroke-opacity:1"
             d="m 442.34179,125.70997 c 0,0 -41.21027,-48.357121 -53.88476,43.4661 -16.31122,118.17029 7.64588,191.51586 41.36486,163.23887 31.31509,-26.26107 99.50373,-63.30475 99.50373,-63.30475 l 36.56041,-37.76594 -19.25306,-34.14937 -9.95396,-13.82868 -98.5737,-57.50133 -9.12719,-8.21447 7.30175,1.82544"
             id="path4120"
             inkscape:connector-curvature="0"
             sodipodi:nodetypes="cssccccccc" />
          <path
             style="fill:#ffffff;fill-opacity:1;fill-rule:nonzero;stroke:none"
             id="path4154"
             d="m 421.69734,216.63657 c 4.01027,-1.77585 8.09595,-3.39034 12.03081,-5.32755 4.91269,-2.41862 9.50905,-5.46604 14.49429,-7.73133 1.01627,-0.46179 37.68513,-15.2687 41.6963,-16.88955 8.09176,-2.98885 13.44224,11.49657 5.35047,14.48542 l 0,0 c -5.89722,1.96848 -11.95141,3.51763 -17.69166,5.90545 -17.12029,7.12168 -32.9071,16.76072 -48.65077,26.42626 -9.4231,4.03848 -16.65254,-12.83023 -7.22944,-16.8687 z"
             inkscape:connector-curvature="0" />
        </g>
      </g>
    </g>
  </g>
</svg>
