<?xml version="1.0" encoding="UTF-8" standalone="no"?>
<!-- Created with Inkscape (http://www.inkscape.org/) -->

<svg
   xmlns:osb="http://www.openswatchbook.org/uri/2009/osb"
   xmlns:dc="http://purl.org/dc/elements/1.1/"
   xmlns:cc="http://creativecommons.org/ns#"
   xmlns:rdf="http://www.w3.org/1999/02/22-rdf-syntax-ns#"
   xmlns:svg="http://www.w3.org/2000/svg"
   xmlns="http://www.w3.org/2000/svg"
   xmlns:xlink="http://www.w3.org/1999/xlink"
   xmlns:sodipodi="http://sodipodi.sourceforge.net/DTD/sodipodi-0.dtd"
   xmlns:inkscape="http://www.inkscape.org/namespaces/inkscape"
   width="640px"
   height="480px"
   id="svg2985"
   version="1.1"
   inkscape:version="0.48.2 r9819"
   sodipodi:docname="fish01-gray.svg"
   inkscape:export-filename="/Users/ovilia/Pictures/PS/fish01-gray.png"
   inkscape:export-xdpi="19.858778"
   inkscape:export-ydpi="19.858778">
  <defs
     id="defs2987">
    <linearGradient
       inkscape:collect="always"
       id="linearGradient3975">
      <stop
         style="stop-color:#808080;stop-opacity:1;"
         offset="0"
         id="stop3977" />
      <stop
         style="stop-color:#808080;stop-opacity:0;"
         offset="1"
         id="stop3979" />
    </linearGradient>
    <linearGradient
       id="linearGradient5329"
       osb:paint="gradient">
      <stop
         style="stop-color:#ffff00;stop-opacity:1;"
         offset="0"
         id="stop5331" />
      <stop
         style="stop-color:#ffff00;stop-opacity:0;"
         offset="1"
         id="stop5333" />
    </linearGradient>
    <filter
       inkscape:collect="always"
       id="filter5421">
      <feGaussianBlur
         inkscape:collect="always"
         stdDeviation="7.7774611"
         id="feGaussianBlur5423" />
    </filter>
    <linearGradient
       inkscape:collect="always"
       xlink:href="#linearGradient3975"
       id="linearGradient3981"
       x1="115.62176"
       y1="227.55768"
       x2="565.5851"
       y2="227.55768"
       gradientUnits="userSpaceOnUse" />
  </defs>
  <sodipodi:namedview
     id="base"
     pagecolor="#ffffff"
     bordercolor="#666666"
     borderopacity="1.0"
     inkscape:pageopacity="0.0"
     inkscape:pageshadow="2"
     inkscape:zoom="0.77472527"
     inkscape:cx="302.66408"
     inkscape:cy="220.6383"
     inkscape:current-layer="layer1"
     inkscape:document-units="px"
     showgrid="false"
     inkscape:window-width="1280"
     inkscape:window-height="686"
     inkscape:window-x="0"
     inkscape:window-y="0"
     inkscape:window-maximized="0"
     inkscape:snap-grids="true"
     inkscape:snap-page="false" />
  <metadata
     id="metadata2990">
    <rdf:RDF>
      <cc:Work
         rdf:about="">
        <dc:format>image/svg+xml</dc:format>
        <dc:type
           rdf:resource="http://purl.org/dc/dcmitype/StillImage" />
        <dc:title></dc:title>
      </cc:Work>
    </rdf:RDF>
  </metadata>
  <g
     inkscape:groupmode="layer"
     id="layer2"
     inkscape:label="filling" />
  <g
     id="layer1"
     inkscape:label="Layer 1"
     inkscape:groupmode="layer">
    <path
       style="fill:#000000;fill-opacity:1;fill-rule:nonzero;stroke:none"
       id="path3059"
       d="m 295.44111,50.693949 c 18.27131,10.390394 27.11889,15.834143 48.67805,25.318421 62.39648,27.44938 19.156,4.316722 79.96076,33.35641 19.2345,9.18619 46.60425,24.57642 65.68301,35.0854 14.58766,8.99435 24.88256,14.21544 37.25799,25.81623 4.7303,4.43421 8.78725,9.54262 12.94878,14.5145 3.11111,3.71692 6.19,7.48558 8.85461,11.53457 2.72384,4.13898 6.07451,11.38008 8.44059,16.32692 2.56319,3.25594 1.00981,2.01635 4.65355,3.80191 1.01927,0.49948 1.95638,1.22634 3.05892,1.49616 0.51975,0.1272 -0.81201,-0.69709 -1.21802,-1.04564 10.44545,1.8573 7.12062,20.55614 -3.32483,18.69884 l 0,0 c -1.58753,-0.55863 -3.25288,-0.93223 -4.76261,-1.6759 -1.52663,-0.752 -2.91698,-1.76382 -4.28239,-2.77955 -8.77758,-6.52965 -6.23805,-3.93229 -11.18877,-12.1009 -0.37502,-1.53358 -0.58084,-3.11874 -1.12505,-4.60074 -2.96318,-8.06935 -5.46397,-12.20779 -10.92483,-19.43117 -3.4031,-4.50146 -6.87656,-8.98823 -10.84997,-12.99525 -9.64157,-9.72312 -22.8671,-18.83233 -33.65425,-26.86373 -22.19842,-13.17311 -40.49969,-24.56614 -63.87905,-36.06886 -12.63403,-6.21598 -25.4635,-12.06918 -38.53775,-17.29615 -13.75397,-5.498714 -27.97439,-9.753943 -41.88092,-14.854533 -24.33568,-8.925758 -31.61402,-12.005669 -52.64819,-20.504274 -8.78849,-4.882495 -0.0481,-20.61516 8.74037,-15.732664 z"
       inkscape:connector-curvature="0" />
    <path
       style="fill:#000000;fill-opacity:1;fill-rule:nonzero;stroke:none"
       id="path3061"
       d="m 564.84525,237.3074 c -2.94311,3.99007 -12.771,17.33047 -14.73165,19.8973 -3.87286,5.07026 -7.48408,10.3692 -11.78191,15.08463 -8.61855,9.45599 -22.52725,21.71884 -33.51199,28.35454 -8.85604,5.34978 -18.40244,9.46303 -27.60366,14.19454 -16.09211,6.68087 -66.53832,27.6025 -80.54759,33.51838 -15.88671,6.70869 -31.67867,13.64068 -47.576,20.32416 -15.4213,6.48334 -31.1064,12.34783 -46.37831,19.17564 -22.6667,10.1339 -18.27497,5.8624 -26.49778,15.39482 -10.36776,2.08371 -14.09791,-16.47606 -3.73015,-18.55978 l 0,0 c 5.49913,10.02779 1.25993,4.16144 26.78724,-5.23749 31.15142,-11.46969 63.34889,-26.24883 93.53151,-39.92352 14.38037,-6.51524 28.7291,-13.10076 43.0468,-19.75261 11.70166,-5.43646 23.34015,-11.00787 35.01022,-16.51181 16.56809,-9.7349 27.09847,-14.72721 41.16123,-26.67374 4.92986,-4.188 9.68197,-8.63854 13.89333,-13.54846 4.05598,-4.72875 7.27352,-10.11758 10.80674,-15.24871 8.15967,-11.84988 7.05505,-10.44353 13.66552,-22.05305 6.46046,-8.07557 20.91691,3.48958 14.45645,11.56516 z"
       inkscape:connector-curvature="0" />
    <path
       style="fill:#000000;fill-opacity:1;fill-rule:nonzero;stroke:none"
       id="path3063"
       d="m 282.5521,69.790229 c -5.85888,11.90219 -4.4111,8.613315 -9.88855,21.223308 -2.03837,4.692668 -4.21375,9.331103 -6.04163,14.109693 -4.56017,11.92163 -4.75678,15.65886 -8.79465,28.08148 -1.94956,5.99784 -4.16886,11.90462 -6.25328,17.85693 -6.67368,20.07224 -13.60005,40.96029 -12.09365,62.46023 0.17909,2.55605 1.13732,4.99778 1.78779,7.47616 1.53142,5.83498 1.22205,4.76279 3.09256,9.13789 0.25978,0.82235 0.51956,1.6447 0.77934,2.46706 2.00637,10.44697 -16.69522,14.03867 -18.7016,3.59169 l 0,0 c 0.0648,-0.19279 0.12964,-0.38558 0.19446,-0.57838 -1.74149,-7.79231 -3.68656,-15.14576 -3.2072,-23.27912 0.32905,-5.58294 1.17963,-11.1309 2.13095,-16.64203 3.42894,-19.86419 6.33485,-29.86588 11.26831,-49.57239 1.8417,-5.77228 3.6834,-11.54455 5.52509,-17.31683 1.44514,-5.26917 2.70554,-10.59253 4.3354,-15.80753 1.22621,-3.92346 9.17374,-25.461307 10.51626,-28.806258 1.46276,-3.644529 3.32056,-7.123844 4.74594,-10.783158 1.51979,-3.901699 2.72122,-7.920039 4.08183,-11.880059 4.61489,-9.229777 21.13751,-0.968463 16.52263,8.261314 z"
       inkscape:connector-curvature="0" />
    <path
       style="fill:#000000;fill-opacity:1;fill-rule:nonzero;stroke:none"
       id="path3065"
       d="m 220.99789,234.41629 c -21.08673,-16.07547 -40.974,-33.69012 -63.63245,-47.62447 -5.58953,-3.43742 -11.31328,-6.75876 -17.40575,-9.19607 -1.9904,-0.79627 -7.5015,1.51593 -6.42249,-0.3365 2.5677,-4.40822 8.05792,-6.25875 12.08689,-9.38812 -3.65911,-7.41113 -0.57434,-4.76718 -11.39354,-4.3294 8.30932,-6.7266 20.35088,8.14828 12.04156,14.87487 l 0,0 c -14.43394,2.33039 -8.06284,4.1674 -19.05754,-5.70086 3.76005,-4.15124 6.09163,-10.34422 11.28015,-12.45371 3.0831,-1.2535 6.17631,2.53155 9.06687,4.18123 6.07035,3.46441 12.0119,7.16906 17.76801,11.13372 7.5192,5.17902 14.55693,11.03108 22.02923,16.27754 21.05648,14.78421 25.13634,16.97362 44.70711,29.03415 7.55673,6.18277 -3.51133,19.71039 -11.06805,13.52762 z"
       inkscape:connector-curvature="0" />
    <path
       style="fill:#000000;fill-opacity:1;fill-rule:nonzero;stroke:none"
       id="path3069"
       d="m 135.7798,194.73759 c 0.51245,8.56827 0.16609,3.95114 1.255,14.98779 0.42821,4.34013 0.3967,8.75139 1.29238,13.01962 1.54291,7.3525 3.76718,14.55138 5.99869,21.72495 5.91833,19.02552 7.24613,21.34007 14.0753,37.76193 1.04899,2.09358 4.6393,4.47618 3.14698,6.28074 -3.88417,4.69685 -9.97831,7.50507 -15.86217,9.09484 -1.5579,0.42093 -4.14469,-4.25601 -2.53636,-4.1237 6.42574,0.52861 14.11942,0.76845 18.56102,5.44196 4.00466,4.21376 1.75385,11.49931 2.94673,17.18878 0.86422,4.1219 2.14587,8.14512 3.2188,12.21767 2.00671,9.14169 -14.35822,12.73399 -16.36493,3.5923 l 0,0 c -0.74223,-4.1965 -1.3208,-8.42526 -2.22668,-12.58951 -1.28894,-5.92512 -6.10104,-11.85564 -4.35424,-17.66228 9.53971,-31.71153 28.11075,-13.84951 -0.40223,-7.4158 -2.19043,0.49426 -0.80627,-4.41804 -1.2094,-6.62706 -5.94121,-19.63788 -4.67881,-16.20207 -12.70839,-38.7168 -2.87428,-8.05941 -6.4455,-15.88454 -8.84528,-24.09774 -1.20985,-4.14067 -1.26086,-8.53512 -1.93457,-12.79598 -2.58535,-16.35092 -0.84265,-3.67032 -2.61734,-17.28171 0,-10.37163 18.56669,-10.37163 18.56669,0 z"
       inkscape:connector-curvature="0" />
    <path
       style="fill:#000000;fill-opacity:1;fill-rule:nonzero;stroke:none"
       id="path3071"
       d="m 211.58202,314.20027 c -9.50757,12.95282 -8.93766,12.54679 -20.15227,26.02543 -2.98052,3.58224 -6.229,6.9386 -9.15478,10.56569 -1.09725,1.36026 -1.22764,4.89732 -2.89435,4.37164 -21.1668,-6.67609 -17.86494,-7.10741 -11.18075,-15.7762 0.16863,-0.32143 0.33727,-0.64286 0.5059,-0.96429 6.21347,-8.54352 21.5076,2.57948 15.29413,11.123 l 0,0 c -0.69188,0.86179 -1.38377,1.72357 -2.07565,2.58536 0.86392,-7.49965 -0.33923,5.9252 -16.02118,-9.3223 -1.28831,-1.25261 2.88746,-2.15115 4.20494,-3.37304 3.06105,-2.83895 6.22302,-5.6059 8.91614,-8.79601 8.39508,-9.94431 10.92278,-14.99946 17.28036,-25.60578 5.12054,-8.53424 20.39805,0.63227 15.27751,9.1665 z"
       inkscape:connector-curvature="0" />
    <path
       style="fill:#000000;fill-opacity:1;fill-rule:nonzero;stroke:none"
       id="path3073"
       d="m 230.10503,283.80142 c 0.65552,8.76441 0.42642,17.64034 1.96656,26.29323 3.43864,19.31914 11.51895,44.55594 20.1454,62.4239 3.13497,6.49349 6.94668,12.71421 11.40635,18.38032 1.76885,2.24736 4.45181,3.65419 6.98356,4.98449 1.73251,0.91034 -3.03525,-2.47153 -4.55288,-3.7073 -2.76693,2.38703 -5.53386,4.77406 -8.30079,7.16109 -0.26019,-0.34271 -0.94753,-1.42469 -0.78057,-1.02812 2.85785,6.78792 5.21921,5.47397 16.00176,-0.36113 1.38305,-0.74846 0.27908,-3.13277 0.41862,-4.69916 4.13109,9.74514 -13.31411,17.14039 -17.4452,7.39525 l 0,0 c -0.38484,-2.80338 -3.12606,-6.38035 -1.15452,-8.41015 9.60448,-9.88832 14.62096,-9.26248 19.2287,-1.40989 1.00832,1.71838 2.61476,3.65622 2.12369,5.58712 -1.31142,5.15654 -4.78091,9.50692 -7.17136,14.26038 -3.56136,-0.91306 -7.65999,-0.64832 -10.68409,-2.7392 -6.30099,-4.35656 -17.01896,-28.34393 -18.07462,-30.84797 -4.18187,-9.91946 -7.69076,-20.11654 -11.09735,-30.32825 -12.3171,-36.92217 -9.65399,-28.47963 -15.19494,-62.95461 0,-9.03932 16.18168,-9.03932 16.18168,0 z"
       inkscape:connector-curvature="0" />
    <path
       style="fill:#000000;fill-opacity:1;fill-rule:nonzero;stroke:none"
       id="path3081"
       d="m 421.69734,216.63657 c 4.01027,-1.77585 8.09595,-3.39034 12.03081,-5.32755 4.91269,-2.41862 9.50905,-5.46604 14.49429,-7.73133 1.01627,-0.46179 37.68513,-15.2687 41.6963,-16.88955 8.09176,-2.98885 13.44224,11.49657 5.35047,14.48542 l 0,0 c -5.89722,1.96848 -11.95141,3.51763 -17.69166,5.90545 -17.12029,7.12168 -32.9071,16.76072 -48.65077,26.42626 -9.4231,4.03848 -16.65254,-12.83023 -7.22944,-16.8687 z"
       inkscape:connector-curvature="0" />
    <path
       style="fill:none;stroke:none;stroke-width:1px;stroke-linecap:butt;stroke-linejoin:miter;stroke-opacity:1"
       d="m 132.95036,185.70213 c 24.52482,139.40425 38.7234,158.76595 38.7234,158.76595 l 55.50355,-61.95744 6.4539,61.95744 29.68794,59.37589 210.39716,-96.80851 64.53901,-47.75887 21.94326,-29.68794 -58.0851,-77.44681 -214.26951,-96.808509 -46.46808,101.971629 -9.03546,69.70213 -96.80851,-63.24823 z"
       id="path3115"
       inkscape:connector-curvature="0" />
    <path
       style="fill:url(#linearGradient3981);fill-opacity:1;fill-rule:nonzero;opacity:1;filter:url(#filter5421);stroke:none"
       d="m 274.5646,386.8909 c -1.03933,-1.94202 -2.61696,-2.36736 -8.06801,-2.17519 l -6.77602,0.2389 -6.4539,-12.98232 c -11.85814,-23.85318 -20.38237,-54.37645 -22.05689,-78.98056 -0.98989,-14.54463 -1.77703,-15.99831 -8.77013,-16.19653 -7.07818,-0.20064 -8.90554,2.22144 -8.27305,10.96556 0.48428,6.69506 0.19918,7.78802 -2.76868,10.61404 -2.11141,2.0105 -5.17358,3.29869 -8.46292,3.56016 -4.87674,0.38765 -5.53718,0.98058 -12.26241,11.00891 -9.41132,14.03371 -16.03549,21.81759 -19.29164,22.66909 -2.26971,0.59354 -2.66263,0.0975 -2.6757,-3.37848 -0.008,-2.24081 -0.87281,-7.26888 -1.92085,-11.17349 -1.04804,-3.90461 -1.91243,-9.91572 -1.92085,-13.35801 -0.0131,-5.34833 -0.60784,-6.81221 -4.08875,-10.06386 l -4.07342,-3.80516 2.78264,-1.94904 c 3.19132,-2.23528 3.56369,-5.21449 1.01929,-8.15491 -2.06268,-2.38373 -11.31633,-25.96311 -14.22364,-36.24349 -1.10423,-3.90461 -3.76564,-16.97375 -5.91425,-29.04255 -2.1486,-12.06879 -4.51405,-24.58995 -5.25653,-27.8248 -1.83666,-8.0019 -0.75713,-10.25321 4.91651,-10.25321 7.48649,0 26.76634,12.40111 60.03963,38.61845 11.78619,9.2868 22.167,16.88509 23.06847,16.88509 0.90146,0 2.89045,1.56944 4.41997,3.48764 3.72185,4.66764 11.05478,4.65821 15.73324,-0.0203 l 3.23237,-3.23237 -3.57226,-12.59169 c -3.96864,-13.98888 -3.96552,-20.70967 0.0186,-39.9199 3.351,-16.15767 25.26899,-80.89818 33.34465,-98.492121 4.00949,-8.735203 7.28997,-16.43148 7.28997,-17.102837 0,-0.671356 0.39577,-1.220648 0.87947,-1.220648 0.48371,0 11.08424,3.99929 23.55674,8.887312 12.4725,4.888021 33.71344,12.81309 47.20209,17.611263 42.07806,14.967971 69.51547,27.859751 107.98567,50.738291 42.46396,25.25366 68.16321,49.37241 74.57699,69.99051 0.98038,3.15154 3.43303,7.8742 5.45034,10.49481 2.01732,2.6206 3.66785,5.18627 3.66785,5.70148 0,2.55546 -20.64257,31.47216 -26.98239,37.7977 -14.42151,14.38904 -35.26805,27.86204 -64.53653,41.70956 -50.49038,23.88807 -112.43415,51.5739 -139.53073,62.36339 -10.29397,4.09892 -23.50805,9.65325 -29.36461,12.34297 -10.07271,4.62602 -10.71815,4.75988 -11.94029,2.47631 z M 444.99519,224.91863 c 18.00882,-10.60819 29.43268,-16.07484 43.19346,-20.6693 6.60601,-2.20562 9.47288,-3.8812 10.66229,-6.23167 2.11844,-4.18643 0.21359,-9.41787 -4.15371,-11.40775 -2.79944,-1.27551 -5.6507,-0.48397 -21.64648,6.00932 -10.13232,4.11307 -26.69493,11.4869 -36.80581,16.38626 -19.98782,9.68537 -21.61036,11.37801 -18.38075,19.17498 3.66957,8.85914 7.29368,8.42344 27.131,-3.26184 l 0,0 z"
       id="path3117"
       inkscape:connector-curvature="0" />
  </g>
</svg>
